# xmcd CD database file
#
# Track frame offsets:
#	150
#	21617
#	55619
#	79546
#	107161
#	126163
#	136483
#	149152
#	165959
#	184053
#	204198
#	227440
#	247304
#	274172
#	287733
#	308710
#
# Disc length: 4453 seconds
#
# Revision: 0
# Processed by: cddbd v1.5.1PL2 Copyright (c) Steve Scherf et al.
# Submitted via: Feurio! 1.68 - http://www.feurio.com
#
DISCID=e7116310
DTITLE=Susan Tedeschi - It Hurt So Bad
DYEAR=1900
DGENRE=Blues
TTITLE0=It Hurt So Bad
TTITLE1=Ain't Nobody's Business
TTITLE2=Angel From Montgomery
TTITLE3=Better Days
TTITLE4=Crazy
TTITLE5=Found Someone New
TTITLE6=Kansas City
TTITLE7=Little By Little
TTITLE8=Muleskinner Blues
TTITLE9=Locomotive
TTITLE10=Looking for Answers
TTITLE11=Rock Me Right
TTITLE12=Voodoo Woman
TTITLE13=You Need to be With Me
TTITLE14=Mama, He Treats Your Daughter Mean
TTITLE15=It Hurt So Bad
EXTD=
EXTT0=
EXTT1=
EXTT2=
EXTT3=
EXTT4=
EXTT5=
EXTT6=
EXTT7=
EXTT8=
EXTT9=
EXTT10=
EXTT11=
EXTT12=
EXTT13=
EXTT14=
EXTT15=
PLAYORDER=
